<svg width="32" height="32" viewBox="0 0 32 32" fill="none" xmlns="http://www.w3.org/2000/svg">
<rect width="32" height="32" rx="16" fill="#EBF7FF"/>
<path opacity="0.7" fill-rule="evenodd" clip-rule="evenodd" d="M15.5564 8.00976C13.9121 8.18402 12.5148 8.79318 11.5602 9.75186C11.2012 10.1124 11.0208 10.3528 10.8463 10.703C10.7455 10.9051 10.7444 10.9061 10.4884 10.9978C9.4633 11.3654 8.85947 12.0097 8.59978 13.0128C8.52987 13.2828 8.52635 13.3698 8.50834 15.2723L8.48964 17.251L8.38804 17.4006C8.12499 17.7881 7.99786 18.2293 8.00003 18.7475C8.00246 19.3343 8.14514 19.804 8.45384 20.2414C8.70867 20.6025 9.13708 20.9494 9.48404 21.0756C9.63004 21.1287 9.65256 21.1537 9.82482 21.4531C10.1075 21.9445 10.4829 22.4314 10.9196 22.8735C12.0302 23.9976 13.3954 24.6919 14.9812 24.9391C15.5031 25.0205 16.5327 25.0203 17.0519 24.9386C18.3492 24.7348 19.4922 24.2338 20.5029 23.4262C21.1971 22.8715 21.8415 22.1098 22.2578 21.3518C22.3646 21.1573 22.399 21.122 22.5325 21.0705C22.7904 20.9708 23.1384 20.7169 23.3717 20.4583C23.6284 20.1738 23.8558 19.7436 23.942 19.3793C24.0115 19.0859 24.0204 18.4501 23.9586 18.1987C23.8998 17.9599 23.7463 17.6031 23.6084 17.3851L23.4984 17.2111L23.4859 15.2523L23.4734 13.2936L23.3878 12.9935C23.1333 12.1015 22.6328 11.2998 21.8207 10.4831C20.5759 9.23135 18.8861 8.36246 17.1317 8.07211C16.8176 8.02013 15.828 7.98096 15.5564 8.00976ZM15.2893 13.9795C15.326 14.1652 15.3101 14.6852 15.2613 14.8948C15.185 15.2218 15.0512 15.4671 14.8069 15.7273C14.6224 15.9238 14.5839 15.9835 14.5926 16.0599C14.6122 16.2324 14.709 16.2511 15.5892 16.2523C16.4186 16.2534 16.7088 16.2252 17.2984 16.0861C18.0891 15.8996 18.6608 15.6254 19.2096 15.1693L19.4444 14.9742L19.5321 15.0905C19.763 15.3968 19.8762 15.8678 19.8194 16.2866C19.7996 16.433 19.7994 16.5416 19.819 16.5794C19.8657 16.6698 19.98 16.7015 20.0758 16.6507C20.1765 16.5972 20.9226 15.8322 21.1535 15.5456L21.3217 15.3367L21.3582 15.4791C21.3782 15.5574 21.4159 15.7038 21.4418 15.8044C21.5265 16.1323 21.6176 16.754 21.6586 17.2822C21.6963 17.7695 21.7026 17.7997 21.7665 17.8C21.8038 17.8002 21.909 17.8356 22.0005 17.8786C22.5749 18.1493 22.699 19.0081 22.2319 19.4798C22.0065 19.7074 21.7342 19.7791 21.4305 19.6909C21.404 19.6832 21.3425 19.79 21.2647 19.9791C20.7412 21.2518 19.7534 22.3095 18.5222 22.9154C17.6166 23.3611 16.6282 23.5521 15.5972 23.4805C13.412 23.329 11.5248 21.9278 10.7093 19.8514C10.6502 19.7011 10.6217 19.6633 10.5805 19.6805C10.4641 19.729 10.2399 19.7348 10.092 19.6931C9.88294 19.6341 9.62334 19.3747 9.54722 19.1486C9.47632 18.9381 9.47606 18.5746 9.54662 18.3906C9.66581 18.08 9.91879 17.8604 10.2122 17.813L10.3467 17.7912V17.6161C10.3467 17.0254 10.5556 15.7531 10.7299 15.2824L10.7815 15.143L10.9045 15.3003C11.1688 15.6386 11.5571 15.9151 11.9316 16.0316C12.2057 16.1168 12.5865 16.1545 12.6773 16.1053C12.7155 16.0847 12.8151 15.9301 12.8986 15.7619C13.3785 14.7951 14.0865 14.1479 14.8826 13.9481C15.2522 13.8554 15.265 13.8564 15.2893 13.9795ZM13.1239 16.6807C12.943 16.7659 12.7638 16.9507 12.691 17.127C12.5574 17.4504 12.6864 17.9057 12.9715 18.1166C13.5254 18.5265 14.2917 18.1406 14.2906 17.4523C14.2896 16.8266 13.6757 16.4207 13.1239 16.6807ZM18.1859 16.6817C17.4686 17.0248 17.5865 18.1016 18.3593 18.2666C18.8856 18.3789 19.3593 17.9844 19.3593 17.4339C19.3593 17.2119 19.3009 17.0578 19.1516 16.8858C18.9136 16.6115 18.5107 16.5264 18.1859 16.6817ZM15.5069 19.4416C15.214 19.5268 15.0798 19.6288 15.0798 19.7664C15.0798 20.1311 16.325 20.2579 16.7991 19.9415C16.9064 19.8699 16.9229 19.8429 16.9141 19.7527C16.9028 19.6356 16.7705 19.5248 16.5627 19.4584C16.3841 19.4013 15.6839 19.3902 15.5069 19.4416Z" fill="#004777"/>
</svg>
