<svg width="46" height="46" viewBox="0 0 46 46" fill="none" xmlns="http://www.w3.org/2000/svg">
<rect width="46" height="46" rx="23" fill="#EBF7FF"/>
<path opacity="0.7" d="M9.58301 21.5093H21.5089V9.58337H9.58301V21.5093ZM12.5645 12.5649H18.5275V18.5278H12.5645V12.5649ZM9.58301 36.4167H21.5089V24.4908H9.58301V36.4167ZM12.5645 27.4723H18.5275V33.4352H12.5645V27.4723ZM24.4904 9.58337V21.5093H36.4163V9.58337H24.4904ZM33.4349 18.5278H27.4719V12.5649H33.4349V18.5278ZM33.4349 33.4352H36.4163V36.4167H33.4349V33.4352ZM24.4904 24.4908H27.4719V27.4723H24.4904V24.4908ZM27.4719 27.4723H30.4534V30.4537H27.4719V27.4723ZM24.4904 30.4537H27.4719V33.4352H24.4904V30.4537ZM27.4719 33.4352H30.4534V36.4167H27.4719V33.4352ZM30.4534 30.4537H33.4349V33.4352H30.4534V30.4537ZM30.4534 24.4908H33.4349V27.4723H30.4534V24.4908ZM33.4349 27.4723H36.4163V30.4537H33.4349V27.4723Z" fill="#004777"/>
</svg>
