<svg width="46" height="46" viewBox="0 0 46 46" fill="none" xmlns="http://www.w3.org/2000/svg">
<rect width="46" height="46" rx="23" fill="#EBF7FF"/>
<path opacity="0.7" d="M38.3337 18.124V29.8281C38.3337 31.0214 37.8467 32.1696 36.9726 33.037C36.0984 33.9043 34.9033 34.4253 33.6325 34.4928L33.3503 34.5H12.6503C11.3774 34.5001 10.1528 34.0435 9.22757 33.224C8.30235 32.4044 7.74672 31.284 7.67466 30.0926L7.66699 29.8281V18.124L22.4667 25.392C22.6314 25.4728 22.8145 25.5151 23.0003 25.5151C23.1862 25.5151 23.3693 25.4728 23.5339 25.392L38.3337 18.124ZM12.6503 11.5H33.3503C34.5855 11.4999 35.7768 11.9298 36.6931 12.7064C37.6093 13.4831 38.1852 14.5511 38.3091 15.7032L23.0003 23.2214L7.69153 15.7032C7.81039 14.5968 8.34634 13.5664 9.20301 12.7973C10.0597 12.0281 11.1809 11.5707 12.3651 11.5072L12.6503 11.5H33.3503H12.6503Z" fill="#004777"/>
</svg>
