<svg width="96" height="78" viewBox="0 0 96 78" fill="none" xmlns="http://www.w3.org/2000/svg">
<rect width="96" height="78" rx="7.35484" fill="white"/>
<rect x="32" y="12" width="32" height="32" rx="16" fill="#EBF7FF"/>
<path opacity="0.7" fill-rule="evenodd" clip-rule="evenodd" d="M49.27 18.0419C48.6103 18.1147 47.8533 18.3575 47.3161 18.6686C47.0513 18.822 47.027 18.8281 46.5541 18.8611C44.8303 18.9813 43.7739 19.5151 43.3137 20.4984C43.0785 21.0009 43.0265 21.2949 43.0269 22.1188C43.0272 22.5601 43.0527 23.0661 43.0898 23.3667C43.1243 23.6448 43.1485 23.875 43.1436 23.8784C43.1388 23.8817 43.0405 23.9349 42.9252 23.9967C42.5349 24.2058 42.2947 24.6184 42.2947 25.0796C42.2947 25.3835 42.5067 27.0404 42.5649 27.1908C42.6916 27.5185 43.0151 27.8252 43.3415 27.927C43.4981 27.9759 43.5012 27.9804 43.5475 28.2317C43.7174 29.1538 44.2702 30.2549 44.9033 30.9325L45.0348 31.0733L44.8859 31.6553L44.737 32.2372L42.9297 32.6933C41.328 33.0974 41.0756 33.1716 40.7116 33.3454C40.1462 33.6154 39.7999 33.8562 39.3838 34.2687C38.5659 35.0795 38.0929 36.1192 38.0099 37.2888C37.9902 37.5656 37.998 37.6556 38.0501 37.7563C38.1866 38.0202 37.3465 37.9996 48 37.9996C58.6535 37.9996 57.8134 38.0202 57.9499 37.7563C58.002 37.6556 58.0098 37.5656 57.9901 37.2888C57.8781 35.711 57.0301 34.3357 55.6788 33.54C55.1931 33.2541 54.8384 33.1392 53.0456 32.6869L51.263 32.2372L51.1393 31.7684C51.0712 31.5106 51.0141 31.2627 51.0123 31.2175C51.0104 31.1694 51.1076 31.0239 51.2472 30.8659C51.8656 30.1664 52.3889 29.1089 52.5481 28.2369C52.5947 27.9813 52.597 27.978 52.7886 27.8812C52.895 27.8275 53.0533 27.7128 53.1406 27.6263C53.4149 27.3542 53.4634 27.202 53.5907 26.2139C53.7281 25.1475 53.7331 24.911 53.624 24.6196C53.535 24.3817 53.2419 24.0577 53.0402 23.9742C52.9043 23.9179 52.9052 23.9288 52.9611 22.9676L52.9958 22.3709L53.1955 22.1525C53.6664 21.6374 53.8031 21.3242 53.7983 20.771C53.7958 20.4781 53.7749 20.3459 53.6992 20.1438C53.3658 19.2534 52.7168 18.585 51.892 18.2824C51.2025 18.0295 50.2091 17.9384 49.27 18.0419Z" fill="#004777"/>
<path opacity="0.7" d="M37.4803 61.6162L38.6283 65.0322H39.9303L36.5983 55.3722H34.9743L31.5023 65.0322H32.7903L33.9243 61.6162H37.4803ZM34.2603 60.6362L35.7583 56.3242L37.1583 60.6362H34.2603ZM47.8357 54.7422H46.6317V58.6342L46.1417 57.9062C45.7637 57.5982 44.9797 57.4162 44.3637 57.4162C42.4457 57.4162 40.7377 58.6902 40.7377 61.4342C40.7377 63.6042 41.9417 65.2282 44.1117 65.2282C44.8677 65.2282 45.6517 64.9902 46.0717 64.6402L46.6317 63.8422V65.0322H47.8357V54.7422ZM44.2937 64.3042C42.8097 64.3042 42.0537 62.9742 42.0537 61.2942C42.0537 59.3482 43.0617 58.3402 44.3637 58.3402C45.4277 58.3402 46.6317 59.0682 46.6317 60.9862V61.3922C46.6317 63.5202 45.5257 64.3042 44.2937 64.3042ZM56.4069 57.6122H55.2029V60.8742C55.2029 63.4082 54.2789 64.2762 53.1169 64.2762C52.1089 64.2762 51.5069 63.7022 51.3949 62.8622C51.3529 62.4842 51.3389 62.0782 51.3389 61.8402V57.6122H50.1349V62.0642C50.1349 62.6662 50.1489 62.9602 50.2049 63.3382C50.3729 64.3602 51.2689 65.2282 52.8089 65.2282C53.5649 65.2282 54.1109 65.1022 54.7409 64.6402L55.2029 63.7722V65.0322H56.4069V57.6122ZM59.9601 54.7422H58.7561V62.9462C58.7561 63.3522 58.7561 63.6742 58.7701 63.9262C58.8121 64.8642 59.3301 65.0882 60.0301 65.0882C60.3101 65.0882 60.6181 65.0742 60.8841 65.0322V64.1642C60.2261 64.2342 60.0021 64.0802 59.9741 63.6042C59.9601 63.3662 59.9601 63.1282 59.9601 62.9042V54.7422ZM63.9931 58.5922H65.3791V57.6682H63.9931V55.9462H62.7891V57.6682H61.7951V58.5922H62.7891V62.9182C62.7891 63.3382 62.7891 63.6462 62.8031 63.8422C62.8731 64.7662 63.3491 65.1442 64.2731 65.1442C64.6091 65.1442 64.9451 65.1302 65.2951 65.0742V64.1922C64.3571 64.3042 64.0631 64.1502 64.0071 63.4362C63.9931 63.2402 63.9931 63.1142 63.9931 62.8622V58.5922Z" fill="#000509"/>
<rect x="0.5" y="0.5" width="95" height="77" rx="6.85484" stroke="#000509" stroke-opacity="0.1"/>
</svg>
