<svg width="96" height="78" viewBox="0 0 96 78" fill="none" xmlns="http://www.w3.org/2000/svg">
<rect width="96" height="78" rx="7.35484" fill="white"/>
<rect x="32" y="12" width="32" height="32" rx="16" fill="#EBF7FF"/>
<path opacity="0.7" fill-rule="evenodd" clip-rule="evenodd" d="M47.5564 20.0098C45.9121 20.184 44.5148 20.7932 43.5602 21.7519C43.2012 22.1124 43.0208 22.3528 42.8463 22.703C42.7455 22.9051 42.7444 22.9061 42.4884 22.9978C41.4633 23.3654 40.8595 24.0097 40.5998 25.0128C40.5299 25.2828 40.5264 25.3698 40.5083 27.2723L40.4896 29.251L40.388 29.4006C40.125 29.7881 39.9979 30.2293 40 30.7475C40.0025 31.3343 40.1451 31.804 40.4538 32.2414C40.7087 32.6025 41.1371 32.9494 41.484 33.0756C41.63 33.1287 41.6526 33.1537 41.8248 33.4531C42.1075 33.9445 42.4829 34.4314 42.9196 34.8735C44.0302 35.9976 45.3954 36.6919 46.9812 36.9391C47.5031 37.0205 48.5327 37.0203 49.0519 36.9386C50.3492 36.7348 51.4922 36.2338 52.5029 35.4262C53.1971 34.8715 53.8415 34.1098 54.2578 33.3518C54.3646 33.1573 54.399 33.122 54.5325 33.0705C54.7904 32.9708 55.1384 32.7169 55.3717 32.4583C55.6284 32.1738 55.8558 31.7436 55.942 31.3793C56.0115 31.0859 56.0204 30.4501 55.9586 30.1987C55.8998 29.9599 55.7463 29.6031 55.6084 29.3851L55.4984 29.2111L55.4859 27.2523L55.4734 25.2936L55.3878 24.9935C55.1333 24.1015 54.6328 23.2998 53.8207 22.4831C52.5759 21.2314 50.8861 20.3625 49.1317 20.0721C48.8176 20.0201 47.828 19.981 47.5564 20.0098ZM47.2893 25.9795C47.326 26.1652 47.3101 26.6852 47.2613 26.8948C47.185 27.2218 47.0512 27.4671 46.8069 27.7273C46.6224 27.9238 46.5839 27.9835 46.5926 28.0599C46.6122 28.2324 46.709 28.2511 47.5892 28.2523C48.4186 28.2534 48.7088 28.2252 49.2984 28.0861C50.0891 27.8996 50.6608 27.6254 51.2096 27.1693L51.4444 26.9742L51.5321 27.0905C51.763 27.3968 51.8762 27.8678 51.8194 28.2866C51.7996 28.433 51.7994 28.5416 51.819 28.5794C51.8657 28.6698 51.98 28.7015 52.0758 28.6507C52.1765 28.5972 52.9226 27.8322 53.1535 27.5456L53.3217 27.3367L53.3582 27.4791C53.3782 27.5574 53.4159 27.7038 53.4418 27.8044C53.5265 28.1323 53.6176 28.754 53.6586 29.2822C53.6963 29.7695 53.7026 29.7997 53.7665 29.8C53.8038 29.8002 53.909 29.8356 54.0005 29.8786C54.5749 30.1493 54.699 31.0081 54.2319 31.4798C54.0065 31.7074 53.7342 31.7791 53.4305 31.6909C53.404 31.6832 53.3425 31.79 53.2647 31.9791C52.7412 33.2518 51.7534 34.3095 50.5222 34.9154C49.6166 35.3611 48.6282 35.5521 47.5972 35.4805C45.412 35.329 43.5248 33.9278 42.7093 31.8514C42.6502 31.7011 42.6217 31.6633 42.5805 31.6805C42.4641 31.729 42.2399 31.7348 42.092 31.6931C41.8829 31.6341 41.6233 31.3747 41.5472 31.1486C41.4763 30.9381 41.4761 30.5746 41.5466 30.3906C41.6658 30.08 41.9188 29.8604 42.2122 29.813L42.3467 29.7912V29.6161C42.3467 29.0254 42.5556 27.7531 42.7299 27.2824L42.7815 27.143L42.9045 27.3003C43.1688 27.6386 43.5571 27.9151 43.9316 28.0316C44.2057 28.1168 44.5865 28.1545 44.6773 28.1053C44.7155 28.0847 44.8151 27.9301 44.8986 27.7619C45.3785 26.7951 46.0865 26.1479 46.8826 25.9481C47.2522 25.8554 47.265 25.8564 47.2893 25.9795ZM45.1239 28.6807C44.943 28.7659 44.7638 28.9507 44.691 29.127C44.5574 29.4504 44.6864 29.9057 44.9715 30.1166C45.5254 30.5265 46.2917 30.1406 46.2906 29.4523C46.2896 28.8266 45.6757 28.4207 45.1239 28.6807ZM50.1859 28.6817C49.4686 29.0248 49.5865 30.1016 50.3593 30.2666C50.8856 30.3789 51.3593 29.9844 51.3593 29.4339C51.3593 29.2119 51.3009 29.0578 51.1516 28.8858C50.9136 28.6115 50.5107 28.5264 50.1859 28.6817ZM47.5069 31.4416C47.214 31.5268 47.0798 31.6288 47.0798 31.7664C47.0798 32.1311 48.325 32.2579 48.7991 31.9415C48.9064 31.8699 48.9229 31.8429 48.9141 31.7527C48.9028 31.6356 48.7705 31.5248 48.5627 31.4584C48.3841 31.4013 47.6839 31.3902 47.5069 31.4416Z" fill="#004777"/>
<path opacity="0.7" d="M28.0401 56.3522V55.3722H19.9481V56.3522H23.3921V65.0322H24.5961V56.3522H28.0401ZM34.5891 61.1122C34.5891 58.9422 33.4551 57.4162 31.4111 57.4162C29.3811 57.4162 27.8831 58.9422 27.8831 61.3502C27.8831 63.9682 29.3251 65.2282 31.2571 65.2282C32.7831 65.2282 34.1971 64.4302 34.4911 62.6382H33.2311C33.0631 63.7022 32.2791 64.3042 31.3131 64.3042C30.2211 64.3042 29.2971 63.6462 29.1851 61.6862H34.5611C34.5891 61.4202 34.5891 61.2242 34.5891 61.1122ZM31.3831 58.3402C32.6011 58.3402 33.2591 59.2222 33.3711 60.7622H29.1991C29.3391 59.1802 30.2071 58.3402 31.3831 58.3402ZM42.5527 61.1122C42.5527 58.9422 41.4187 57.4162 39.3747 57.4162C37.3447 57.4162 35.8467 58.9422 35.8467 61.3502C35.8467 63.9682 37.2887 65.2282 39.2207 65.2282C40.7467 65.2282 42.1607 64.4302 42.4547 62.6382H41.1947C41.0267 63.7022 40.2427 64.3042 39.2767 64.3042C38.1847 64.3042 37.2607 63.6462 37.1487 61.6862H42.5247C42.5527 61.4202 42.5527 61.2242 42.5527 61.1122ZM39.3467 58.3402C40.5647 58.3402 41.2227 59.2222 41.3347 60.7622H37.1627C37.3027 59.1802 38.1707 58.3402 39.3467 58.3402ZM50.6703 59.5862C50.5583 58.2842 49.6483 57.4162 48.0243 57.4162C47.2683 57.4162 46.7223 57.5422 46.0923 58.0322L45.6303 58.8862V57.6122H44.4263V65.0322H45.6303V61.7702C45.6303 59.2362 46.6103 58.3682 47.7723 58.3682C48.9203 58.3682 49.3963 59.0122 49.4663 59.8802C49.4943 60.2582 49.4943 60.5662 49.4943 60.9442V65.0322H50.6983V60.8602C50.6983 60.2582 50.6983 59.9642 50.6703 59.5862ZM52.7671 65.4522L56.2811 54.9522H55.4131L51.8991 65.4522H52.7671ZM60.8974 60.0902L65.2794 55.3722H63.8654L59.0914 60.5102V55.3722H57.8874V65.0322H59.0914V61.8962L60.0154 60.9022L63.3334 65.0322H65.0274L60.8974 60.0902ZM66.9366 55.1762C66.5026 55.1762 66.1666 55.5122 66.1666 55.9462C66.1666 56.3802 66.5026 56.7162 66.9366 56.7162C67.3706 56.7162 67.7066 56.3802 67.7066 55.9462C67.7066 55.5122 67.3706 55.1762 66.9366 55.1762ZM67.5386 65.0322V57.6122H66.3346V65.0322H67.5386ZM76.4326 54.7422H75.2286V58.6342L74.7386 57.9062C74.3606 57.5982 73.5766 57.4162 72.9606 57.4162C71.0426 57.4162 69.3346 58.6902 69.3346 61.4342C69.3346 63.6042 70.5386 65.2282 72.7086 65.2282C73.4646 65.2282 74.2486 64.9902 74.6686 64.6402L75.2286 63.8422V65.0322H76.4326V54.7422ZM72.8906 64.3042C71.4066 64.3042 70.6506 62.9742 70.6506 61.2942C70.6506 59.3482 71.6586 58.3402 72.9606 58.3402C74.0246 58.3402 75.2286 59.0682 75.2286 60.9862V61.3922C75.2286 63.5202 74.1226 64.3042 72.8906 64.3042Z" fill="#000509"/>
<rect x="0.5" y="0.5" width="95" height="77" rx="6.85484" stroke="#000509" stroke-opacity="0.1"/>
</svg>
