<svg width="20" height="20" viewBox="0 0 20 20" fill="none" xmlns="http://www.w3.org/2000/svg">
<path opacity="0.7" fill-rule="evenodd" clip-rule="evenodd" d="M11.27 0.0419401C10.6103 0.114683 9.85326 0.357485 9.31614 0.668577C9.05131 0.821955 9.027 0.828088 8.55412 0.8611C6.83025 0.981349 5.77394 1.51508 5.31368 2.4984C5.07847 3.00093 5.02646 3.29487 5.02693 4.11883C5.02717 4.56013 5.05268 5.06613 5.08985 5.36671C5.12427 5.64479 5.14846 5.87502 5.14362 5.87838C5.13877 5.8817 5.04049 5.93495 4.92521 5.99671C4.53494 6.20576 4.29465 6.61843 4.29465 7.07957C4.29465 7.38348 4.50673 9.04039 4.56492 9.19076C4.69165 9.5185 5.01513 9.82521 5.34147 9.92702C5.49813 9.97593 5.50118 9.98039 5.54749 10.2317C5.71743 11.1538 6.27019 12.2549 6.90329 12.9325L7.03482 13.0733L6.8859 13.6553L6.73701 14.2372L4.92967 14.6933C3.32795 15.0974 3.07563 15.1716 2.71162 15.3454C2.1462 15.6154 1.79989 15.8562 1.3838 16.2687C0.565899 17.0795 0.092941 18.1192 0.00990091 19.2888C-0.00975518 19.5656 -0.00201779 19.6556 0.0501119 19.7563C0.18661 20.0202 -0.653521 19.9996 10 19.9996C20.6535 19.9996 19.8134 20.0202 19.9499 19.7563C20.002 19.6556 20.0098 19.5656 19.9901 19.2888C19.8781 17.711 19.0301 16.3357 17.6788 15.54C17.1931 15.2541 16.8384 15.1392 15.0456 14.6869L13.263 14.2372L13.1393 13.7684C13.0712 13.5106 13.0141 13.2627 13.0123 13.2175C13.0104 13.1694 13.1076 13.0239 13.2472 12.8659C13.8656 12.1664 14.3889 11.1089 14.5481 10.2369C14.5947 9.98133 14.597 9.97797 14.7886 9.88124C14.895 9.82752 15.0533 9.71278 15.1406 9.62628C15.4149 9.35418 15.4634 9.20198 15.5907 8.21393C15.7281 7.14747 15.7331 6.91104 15.624 6.61964C15.535 6.38168 15.2419 6.05773 15.0402 5.97417C14.9043 5.91791 14.9052 5.92877 14.9611 4.9676L14.9958 4.37089L15.1955 4.15255C15.6664 3.63741 15.8031 3.32417 15.7983 2.77102C15.7958 2.47809 15.7749 2.34593 15.6992 2.14375C15.3658 1.25341 14.7168 0.584974 13.892 0.282438C13.2025 0.0295168 12.2091 -0.0615878 11.27 0.0419401Z" fill="#004777"/>
</svg>
