<svg width="16" height="17" viewBox="0 0 16 17" fill="none" xmlns="http://www.w3.org/2000/svg">
<path opacity="0.7" fill-rule="evenodd" clip-rule="evenodd" d="M7.55638 0.0097579C5.91209 0.184015 4.51475 0.793184 3.56022 1.75186C3.20123 2.11238 3.02078 2.35279 2.84628 2.70296C2.74554 2.90512 2.74439 2.90605 2.48844 2.99784C1.4633 3.36544 0.859474 4.00966 0.59978 5.01277C0.529868 5.2828 0.526352 5.36976 0.50834 7.27229L0.489637 9.25098L0.388041 9.40062C0.124994 9.78808 -0.00214203 10.2293 2.72919e-05 10.7475C0.00245957 11.3343 0.145142 11.804 0.453843 12.2414C0.708673 12.6025 1.13708 12.9494 1.48404 13.0756C1.63004 13.1287 1.65256 13.1537 1.82482 13.4531C2.10753 13.9445 2.48285 14.4314 2.91964 14.8735C4.03021 15.9976 5.39543 16.6919 6.98118 16.9391C7.50306 17.0205 8.53267 17.0203 9.0519 16.9386C10.3492 16.7348 11.4922 16.2338 12.5029 15.4262C13.1971 14.8715 13.8415 14.1098 14.2578 13.3518C14.3646 13.1573 14.399 13.122 14.5325 13.0705C14.7904 12.9708 15.1384 12.7169 15.3717 12.4583C15.6284 12.1738 15.8558 11.7436 15.942 11.3793C16.0115 11.0859 16.0204 10.4501 15.9586 10.1987C15.8998 9.95988 15.7463 9.60312 15.6084 9.38506L15.4984 9.21107L15.4859 7.25234L15.4734 5.29361L15.3878 4.99351C15.1333 4.10151 14.6328 3.29976 13.8207 2.48315C12.5759 1.23135 10.8861 0.362462 9.13167 0.0721114C8.81761 0.0201335 7.82804 -0.0190411 7.55638 0.0097579ZM7.28932 5.9795C7.32603 6.16519 7.31006 6.68524 7.26125 6.89478C7.185 7.22184 7.05115 7.46713 6.80688 7.72729C6.62238 7.92379 6.58393 7.98352 6.59261 8.05994C6.61219 8.23244 6.70903 8.25113 7.58925 8.25229C8.41862 8.25339 8.70878 8.22515 9.29841 8.08611C10.0891 7.89962 10.6608 7.6254 11.2096 7.16933L11.4444 6.97416L11.5321 7.09045C11.763 7.3968 11.8762 7.86783 11.8194 8.28658C11.7996 8.433 11.7994 8.54164 11.819 8.57942C11.8657 8.66978 11.98 8.7015 12.0758 8.65069C12.1765 8.59725 12.9226 7.83221 13.1535 7.54562L13.3217 7.33674L13.3582 7.47911C13.3782 7.55739 13.4159 7.70378 13.4418 7.80438C13.5265 8.13234 13.6176 8.75404 13.6586 9.28217C13.6963 9.76949 13.7026 9.79972 13.7665 9.80002C13.8038 9.80019 13.909 9.83557 14.0005 9.87863C14.5749 10.1493 14.699 11.0081 14.2319 11.4798C14.0065 11.7074 13.7342 11.7791 13.4305 11.6909C13.404 11.6832 13.3425 11.79 13.2647 11.9791C12.7412 13.2518 11.7534 14.3095 10.5222 14.9154C9.61664 15.3611 8.62815 15.5521 7.59723 15.4805C5.412 15.329 3.52479 13.9278 2.70925 11.8514C2.65022 11.7011 2.62172 11.6633 2.58047 11.6805C2.46412 11.729 2.23986 11.7348 2.09198 11.6931C1.88294 11.6341 1.62334 11.3747 1.54722 11.1486C1.47632 10.9381 1.47606 10.5746 1.54662 10.3906C1.66581 10.08 1.91879 9.86041 2.21221 9.81296L2.34671 9.79117V9.61605C2.34671 9.02537 2.55562 7.7531 2.72989 7.28243L2.78153 7.14296L2.90449 7.30033C3.16875 7.63857 3.55713 7.91508 3.93157 8.03157C4.20572 8.11684 4.58647 8.15452 4.67729 8.10533C4.71552 8.08465 4.81511 7.93011 4.89856 7.76194C5.37851 6.79511 6.08646 6.14787 6.88257 5.9481C7.25218 5.85536 7.26496 5.85635 7.28932 5.9795ZM5.12387 8.68068C4.94303 8.76588 4.76377 8.95071 4.69096 9.12697C4.55738 9.45044 4.68643 9.90574 4.9715 10.1166C5.52543 10.5265 6.29173 10.1406 6.29061 9.4523C6.28962 8.82664 5.67574 8.42066 5.12387 8.68068ZM10.1859 8.68175C9.46864 9.02481 9.5865 10.1016 10.3593 10.2666C10.8856 10.3789 11.3593 9.98442 11.3593 9.43388C11.3593 9.21187 11.3009 9.05783 11.1516 8.8858C10.9136 8.61151 10.5107 8.52638 10.1859 8.68175ZM7.50688 11.4416C7.21399 11.5268 7.07978 11.6288 7.07978 11.7664C7.07978 12.1311 8.32501 12.2579 8.7991 11.9415C8.90635 11.8699 8.92285 11.8429 8.91414 11.7527C8.90284 11.6356 8.77051 11.5248 8.56275 11.4584C8.38411 11.4013 7.68387 11.3902 7.50688 11.4416Z" fill="#004777"/>
</svg>
