<svg width="32" height="32" viewBox="0 0 32 32" fill="none" xmlns="http://www.w3.org/2000/svg">
<rect width="32" height="32" rx="16" fill="#EBF7FF"/>
<path opacity="0.7" fill-rule="evenodd" clip-rule="evenodd" d="M17.27 6.04194C16.6103 6.11468 15.8533 6.35749 15.3161 6.66858C15.0513 6.82195 15.027 6.82809 14.5541 6.8611C12.8303 6.98135 11.7739 7.51508 11.3137 8.4984C11.0785 9.00093 11.0265 9.29487 11.0269 10.1188C11.0272 10.5601 11.0527 11.0661 11.0898 11.3667C11.1243 11.6448 11.1485 11.875 11.1436 11.8784C11.1388 11.8817 11.0405 11.9349 10.9252 11.9967C10.5349 12.2058 10.2947 12.6184 10.2947 13.0796C10.2947 13.3835 10.5067 15.0404 10.5649 15.1908C10.6916 15.5185 11.0151 15.8252 11.3415 15.927C11.4981 15.9759 11.5012 15.9804 11.5475 16.2317C11.7174 17.1538 12.2702 18.2549 12.9033 18.9325L13.0348 19.0733L12.8859 19.6553L12.737 20.2372L10.9297 20.6933C9.32795 21.0974 9.07563 21.1716 8.71162 21.3454C8.1462 21.6154 7.79989 21.8562 7.3838 22.2687C6.5659 23.0795 6.09294 24.1192 6.0099 25.2888C5.99024 25.5656 5.99798 25.6556 6.05011 25.7563C6.18661 26.0202 5.34648 25.9996 16 25.9996C26.6535 25.9996 25.8134 26.0202 25.9499 25.7563C26.002 25.6556 26.0098 25.5656 25.9901 25.2888C25.8781 23.711 25.0301 22.3357 23.6788 21.54C23.1931 21.2541 22.8384 21.1392 21.0456 20.6869L19.263 20.2372L19.1393 19.7684C19.0712 19.5106 19.0141 19.2627 19.0123 19.2175C19.0104 19.1694 19.1076 19.0239 19.2472 18.8659C19.8656 18.1664 20.3889 17.1089 20.5481 16.2369C20.5947 15.9813 20.597 15.978 20.7886 15.8812C20.895 15.8275 21.0533 15.7128 21.1406 15.6263C21.4149 15.3542 21.4634 15.202 21.5907 14.2139C21.7281 13.1475 21.7331 12.911 21.624 12.6196C21.535 12.3817 21.2419 12.0577 21.0402 11.9742C20.9043 11.9179 20.9052 11.9288 20.9611 10.9676L20.9958 10.3709L21.1955 10.1525C21.6664 9.63741 21.8031 9.32417 21.7983 8.77101C21.7958 8.47809 21.7749 8.34593 21.6992 8.14375C21.3658 7.25341 20.7168 6.58497 19.892 6.28244C19.2025 6.02952 18.2091 5.93841 17.27 6.04194Z" fill="#004777"/>
</svg>
