<svg width="46" height="46" viewBox="0 0 46 46" fill="none" xmlns="http://www.w3.org/2000/svg">
<rect width="46" height="46" rx="23" fill="#EBF7FF"/>
<path opacity="0.7" fill-rule="evenodd" clip-rule="evenodd" d="M24.8257 8.68529C23.8773 8.78986 22.7891 9.13889 22.017 9.58608C21.6363 9.80656 21.6013 9.81538 20.9216 9.86283C18.4435 10.0357 16.925 10.8029 16.2634 12.2165C15.9253 12.9388 15.8505 13.3614 15.8512 14.5458C15.8516 15.1802 15.8882 15.9076 15.9417 16.3397C15.9911 16.7394 16.0259 17.0703 16.019 17.0752C16.012 17.0799 15.8707 17.1565 15.705 17.2453C15.144 17.5458 14.7986 18.139 14.7986 18.8019C14.7986 19.2387 15.1034 21.6206 15.1871 21.8367C15.3692 22.3078 15.8342 22.7487 16.3034 22.8951C16.5286 22.9654 16.5329 22.9718 16.5995 23.3331C16.8438 24.6585 17.6384 26.2414 18.5485 27.2155L18.7376 27.4179L18.5235 28.2545L18.3095 29.091L15.7114 29.7466C13.4089 30.3275 13.0462 30.4342 12.5229 30.684C11.7102 31.0722 11.2123 31.4183 10.6142 32.0113C9.43848 33.1768 8.7586 34.6713 8.63923 36.3526C8.61098 36.7505 8.6221 36.8799 8.69704 37.0247C8.89325 37.404 7.68556 37.3745 23 37.3745C38.3144 37.3745 37.1067 37.404 37.303 37.0247C37.3779 36.8799 37.389 36.7505 37.3608 36.3526C37.1997 34.0845 35.9808 32.1075 34.0382 30.9638C33.3401 30.5528 32.8303 30.3876 30.253 29.7375L27.6905 29.091L27.5127 28.4171C27.4149 28.0464 27.3328 27.6901 27.3301 27.6251C27.3274 27.556 27.4671 27.3468 27.6679 27.1197C28.5569 26.1142 29.3091 24.594 29.5378 23.3406C29.6049 22.9732 29.6082 22.9683 29.8836 22.8293C30.0365 22.7521 30.2642 22.5871 30.3895 22.4628C30.7839 22.0716 30.8536 21.8528 31.0366 20.4325C31.2342 18.8995 31.2413 18.5596 31.0845 18.1407C30.9565 17.7987 30.5353 17.333 30.2452 17.2129C30.0499 17.132 30.0512 17.1476 30.1315 15.7659L30.1815 14.9082L30.4685 14.5943C31.1454 13.8538 31.3419 13.4035 31.3351 12.6083C31.3315 12.1873 31.3014 11.9973 31.1926 11.7066C30.7134 10.4268 29.7805 9.4659 28.5948 9.031C27.6036 8.66743 26.1755 8.53647 24.8257 8.68529Z" fill="#004777"/>
</svg>
