<svg width="24" height="23" viewBox="0 0 24 23" fill="none" xmlns="http://www.w3.org/2000/svg">
<g opacity="0.7">
<rect width="24" height="23" rx="11.5" fill="#EBF7FF"/>
<path d="M10.25 11.1766H8.83333V12.5422H10.25V11.1766ZM13.0833 11.1766H11.6667V12.5422H13.0833V11.1766ZM15.9167 11.1766H14.5V12.5422H15.9167V11.1766ZM17.3333 6.39688H16.625V5.03125H15.2083V6.39688H9.54167V5.03125H8.125V6.39688H7.41667C6.63042 6.39688 6.00708 7.01141 6.00708 7.7625L6 17.3219C6 17.6841 6.14926 18.0314 6.41493 18.2875C6.68061 18.5436 7.04094 18.6875 7.41667 18.6875H17.3333C18.1125 18.6875 18.75 18.073 18.75 17.3219V7.7625C18.75 7.01141 18.1125 6.39688 17.3333 6.39688ZM17.3333 17.3219H7.41667V9.81094H17.3333V17.3219Z" fill="#004777"/>
</g>
</svg>
